<mxfile host="app.diagrams.net" agent="Mozilla/5.0 (Windows NT 10.0; Win64; x64) AppleWebKit/537.36 (KHTML, like Gecko) Chrome/134.0.0.0 Safari/537.36" version="26.1.1">
  <diagram id="R2lEEEUBdFMjLlhIrx00" name="Page-1">
    <mxGraphModel dx="1000" dy="505" grid="1" gridSize="10" guides="1" tooltips="1" connect="1" arrows="1" fold="1" page="1" pageScale="1" pageWidth="850" pageHeight="1100" background="#ffffff" math="0" shadow="0" extFonts="Permanent Marker^https://fonts.googleapis.com/css?family=Permanent+Marker">
      <root>
        <mxCell id="0" />
        <mxCell id="1" parent="0" />
        <mxCell id="SwfDSKc9lsgy5s3C8QAt-1" value="&lt;b&gt;&lt;font style=&quot;font-size: 16px;&quot;&gt;Medication&lt;/font&gt;&lt;/b&gt;" style="rounded=0;whiteSpace=wrap;html=1;" vertex="1" parent="1">
          <mxGeometry x="130" y="40" width="120" height="60" as="geometry" />
        </mxCell>
        <mxCell id="SwfDSKc9lsgy5s3C8QAt-2" value="Med_Name" style="ellipse;whiteSpace=wrap;html=1;" vertex="1" parent="1">
          <mxGeometry x="10" y="90" width="100" height="60" as="geometry" />
        </mxCell>
        <mxCell id="SwfDSKc9lsgy5s3C8QAt-3" value="&lt;u&gt;Med_ID&lt;/u&gt;" style="ellipse;whiteSpace=wrap;html=1;" vertex="1" parent="1">
          <mxGeometry x="10" width="100" height="60" as="geometry" />
        </mxCell>
        <mxCell id="SwfDSKc9lsgy5s3C8QAt-7" value="" style="endArrow=none;html=1;rounded=0;exitX=1;exitY=0.5;exitDx=0;exitDy=0;" edge="1" parent="1" source="SwfDSKc9lsgy5s3C8QAt-2">
          <mxGeometry width="50" height="50" relative="1" as="geometry">
            <mxPoint x="80" y="150" as="sourcePoint" />
            <mxPoint x="130" y="100" as="targetPoint" />
          </mxGeometry>
        </mxCell>
        <mxCell id="SwfDSKc9lsgy5s3C8QAt-9" value="" style="endArrow=none;html=1;rounded=0;entryX=0;entryY=0;entryDx=0;entryDy=0;exitX=1;exitY=0.5;exitDx=0;exitDy=0;" edge="1" parent="1" source="SwfDSKc9lsgy5s3C8QAt-3" target="SwfDSKc9lsgy5s3C8QAt-1">
          <mxGeometry width="50" height="50" relative="1" as="geometry">
            <mxPoint x="400" y="300" as="sourcePoint" />
            <mxPoint x="450" y="250" as="targetPoint" />
          </mxGeometry>
        </mxCell>
        <mxCell id="SwfDSKc9lsgy5s3C8QAt-10" value="&lt;b&gt;&lt;font style=&quot;font-size: 16px;&quot;&gt;Medical Condition&lt;/font&gt;&lt;/b&gt;" style="rounded=0;whiteSpace=wrap;html=1;" vertex="1" parent="1">
          <mxGeometry x="600" y="40" width="120" height="60" as="geometry" />
        </mxCell>
        <mxCell id="SwfDSKc9lsgy5s3C8QAt-11" value="&lt;u&gt;Condition_ID&lt;/u&gt;" style="ellipse;whiteSpace=wrap;html=1;" vertex="1" parent="1">
          <mxGeometry x="750" width="100" height="60" as="geometry" />
        </mxCell>
        <mxCell id="SwfDSKc9lsgy5s3C8QAt-12" value="Condition_name" style="ellipse;whiteSpace=wrap;html=1;" vertex="1" parent="1">
          <mxGeometry x="750" y="90" width="100" height="60" as="geometry" />
        </mxCell>
        <mxCell id="SwfDSKc9lsgy5s3C8QAt-13" value="" style="endArrow=none;html=1;rounded=0;entryX=1;entryY=1;entryDx=0;entryDy=0;exitX=0;exitY=0.5;exitDx=0;exitDy=0;" edge="1" parent="1" source="SwfDSKc9lsgy5s3C8QAt-12" target="SwfDSKc9lsgy5s3C8QAt-10">
          <mxGeometry width="50" height="50" relative="1" as="geometry">
            <mxPoint x="400" y="270" as="sourcePoint" />
            <mxPoint x="450" y="220" as="targetPoint" />
          </mxGeometry>
        </mxCell>
        <mxCell id="SwfDSKc9lsgy5s3C8QAt-14" value="" style="endArrow=none;html=1;rounded=0;entryX=0;entryY=0.5;entryDx=0;entryDy=0;exitX=1;exitY=0;exitDx=0;exitDy=0;" edge="1" parent="1" source="SwfDSKc9lsgy5s3C8QAt-10" target="SwfDSKc9lsgy5s3C8QAt-11">
          <mxGeometry width="50" height="50" relative="1" as="geometry">
            <mxPoint x="400" y="270" as="sourcePoint" />
            <mxPoint x="450" y="220" as="targetPoint" />
          </mxGeometry>
        </mxCell>
        <mxCell id="SwfDSKc9lsgy5s3C8QAt-15" value="&lt;b&gt;&lt;font style=&quot;font-size: 16px;&quot;&gt;Patient&lt;/font&gt;&lt;/b&gt;" style="rounded=0;whiteSpace=wrap;html=1;" vertex="1" parent="1">
          <mxGeometry x="360" y="160" width="120" height="60" as="geometry" />
        </mxCell>
        <mxCell id="SwfDSKc9lsgy5s3C8QAt-16" value="&lt;u&gt;Patient_ID&lt;/u&gt;" style="ellipse;whiteSpace=wrap;html=1;" vertex="1" parent="1">
          <mxGeometry x="250" y="140" width="80" height="40" as="geometry" />
        </mxCell>
        <mxCell id="SwfDSKc9lsgy5s3C8QAt-17" value="Name" style="ellipse;whiteSpace=wrap;html=1;" vertex="1" parent="1">
          <mxGeometry x="250" y="200" width="80" height="40" as="geometry" />
        </mxCell>
        <mxCell id="SwfDSKc9lsgy5s3C8QAt-19" value="Gender" style="ellipse;whiteSpace=wrap;html=1;" vertex="1" parent="1">
          <mxGeometry x="520" y="200" width="80" height="40" as="geometry" />
        </mxCell>
        <mxCell id="SwfDSKc9lsgy5s3C8QAt-20" value="Blood_Type" style="ellipse;whiteSpace=wrap;html=1;" vertex="1" parent="1">
          <mxGeometry x="520" y="140" width="80" height="40" as="geometry" />
        </mxCell>
        <mxCell id="SwfDSKc9lsgy5s3C8QAt-24" value="" style="endArrow=none;html=1;rounded=0;exitX=1;exitY=0.5;exitDx=0;exitDy=0;" edge="1" parent="1" source="SwfDSKc9lsgy5s3C8QAt-16">
          <mxGeometry width="50" height="50" relative="1" as="geometry">
            <mxPoint x="320" y="170" as="sourcePoint" />
            <mxPoint x="360" y="160" as="targetPoint" />
          </mxGeometry>
        </mxCell>
        <mxCell id="SwfDSKc9lsgy5s3C8QAt-25" value="" style="endArrow=none;html=1;rounded=0;entryX=1;entryY=1;entryDx=0;entryDy=0;exitX=0;exitY=0.5;exitDx=0;exitDy=0;" edge="1" parent="1" source="SwfDSKc9lsgy5s3C8QAt-19" target="SwfDSKc9lsgy5s3C8QAt-15">
          <mxGeometry width="50" height="50" relative="1" as="geometry">
            <mxPoint x="400" y="270" as="sourcePoint" />
            <mxPoint x="450" y="220" as="targetPoint" />
          </mxGeometry>
        </mxCell>
        <mxCell id="SwfDSKc9lsgy5s3C8QAt-26" value="" style="endArrow=none;html=1;rounded=0;entryX=0;entryY=1;entryDx=0;entryDy=0;" edge="1" parent="1" source="SwfDSKc9lsgy5s3C8QAt-17" target="SwfDSKc9lsgy5s3C8QAt-15">
          <mxGeometry width="50" height="50" relative="1" as="geometry">
            <mxPoint x="400" y="270" as="sourcePoint" />
            <mxPoint x="450" y="220" as="targetPoint" />
          </mxGeometry>
        </mxCell>
        <mxCell id="SwfDSKc9lsgy5s3C8QAt-28" value="" style="endArrow=none;html=1;rounded=0;exitX=1;exitY=0;exitDx=0;exitDy=0;" edge="1" parent="1" source="SwfDSKc9lsgy5s3C8QAt-15" target="SwfDSKc9lsgy5s3C8QAt-20">
          <mxGeometry width="50" height="50" relative="1" as="geometry">
            <mxPoint x="400" y="270" as="sourcePoint" />
            <mxPoint x="450" y="220" as="targetPoint" />
          </mxGeometry>
        </mxCell>
        <mxCell id="SwfDSKc9lsgy5s3C8QAt-30" value="&lt;b&gt;&lt;font style=&quot;font-size: 16px;&quot;&gt;Admission&lt;/font&gt;&lt;/b&gt;" style="rounded=0;whiteSpace=wrap;html=1;" vertex="1" parent="1">
          <mxGeometry x="360" y="400" width="120" height="60" as="geometry" />
        </mxCell>
        <mxCell id="SwfDSKc9lsgy5s3C8QAt-31" value="Billing_&lt;div&gt;amount&lt;/div&gt;" style="ellipse;whiteSpace=wrap;html=1;" vertex="1" parent="1">
          <mxGeometry x="510" y="380" width="80" height="40" as="geometry" />
        </mxCell>
        <mxCell id="SwfDSKc9lsgy5s3C8QAt-32" value="Data_of_&lt;div&gt;Admission&lt;/div&gt;" style="ellipse;whiteSpace=wrap;html=1;" vertex="1" parent="1">
          <mxGeometry x="160" y="410" width="80" height="40" as="geometry" />
        </mxCell>
        <mxCell id="SwfDSKc9lsgy5s3C8QAt-33" value="&lt;u&gt;Admission_ID&lt;/u&gt;" style="ellipse;whiteSpace=wrap;html=1;" vertex="1" parent="1">
          <mxGeometry x="240" y="380" width="90" height="40" as="geometry" />
        </mxCell>
        <mxCell id="SwfDSKc9lsgy5s3C8QAt-34" value="Discharge&lt;div&gt;_Date&lt;/div&gt;" style="ellipse;whiteSpace=wrap;html=1;" vertex="1" parent="1">
          <mxGeometry x="520" y="440" width="80" height="40" as="geometry" />
        </mxCell>
        <mxCell id="SwfDSKc9lsgy5s3C8QAt-35" value="Admission_&lt;div&gt;Type&lt;/div&gt;" style="ellipse;whiteSpace=wrap;html=1;" vertex="1" parent="1">
          <mxGeometry x="260" y="460" width="80" height="40" as="geometry" />
        </mxCell>
        <mxCell id="SwfDSKc9lsgy5s3C8QAt-36" value="room_&lt;div&gt;Number&lt;/div&gt;" style="ellipse;whiteSpace=wrap;html=1;" vertex="1" parent="1">
          <mxGeometry x="600" y="410" width="80" height="40" as="geometry" />
        </mxCell>
        <mxCell id="SwfDSKc9lsgy5s3C8QAt-38" value="" style="endArrow=none;html=1;rounded=0;entryX=1;entryY=0.5;entryDx=0;entryDy=0;" edge="1" parent="1" target="SwfDSKc9lsgy5s3C8QAt-33">
          <mxGeometry width="50" height="50" relative="1" as="geometry">
            <mxPoint x="360" y="400" as="sourcePoint" />
            <mxPoint x="410" y="350" as="targetPoint" />
          </mxGeometry>
        </mxCell>
        <mxCell id="SwfDSKc9lsgy5s3C8QAt-39" value="" style="endArrow=none;html=1;rounded=0;entryX=0;entryY=0.5;entryDx=0;entryDy=0;" edge="1" parent="1" target="SwfDSKc9lsgy5s3C8QAt-31">
          <mxGeometry width="50" height="50" relative="1" as="geometry">
            <mxPoint x="480" y="400" as="sourcePoint" />
            <mxPoint x="530" y="350" as="targetPoint" />
          </mxGeometry>
        </mxCell>
        <mxCell id="SwfDSKc9lsgy5s3C8QAt-40" value="" style="endArrow=none;html=1;rounded=0;exitX=1;exitY=0.5;exitDx=0;exitDy=0;" edge="1" parent="1" source="SwfDSKc9lsgy5s3C8QAt-32">
          <mxGeometry width="50" height="50" relative="1" as="geometry">
            <mxPoint x="310" y="480" as="sourcePoint" />
            <mxPoint x="360" y="430" as="targetPoint" />
          </mxGeometry>
        </mxCell>
        <mxCell id="SwfDSKc9lsgy5s3C8QAt-41" value="" style="endArrow=none;html=1;rounded=0;exitX=1;exitY=0.5;exitDx=0;exitDy=0;" edge="1" parent="1" source="SwfDSKc9lsgy5s3C8QAt-77">
          <mxGeometry width="50" height="50" relative="1" as="geometry">
            <mxPoint x="340" y="510" as="sourcePoint" />
            <mxPoint x="390" y="460" as="targetPoint" />
            <Array as="points">
              <mxPoint x="390" y="560" />
            </Array>
          </mxGeometry>
        </mxCell>
        <mxCell id="SwfDSKc9lsgy5s3C8QAt-42" value="" style="endArrow=none;html=1;rounded=0;" edge="1" parent="1" source="SwfDSKc9lsgy5s3C8QAt-86">
          <mxGeometry width="50" height="50" relative="1" as="geometry">
            <mxPoint x="410" y="510" as="sourcePoint" />
            <mxPoint x="460" y="460" as="targetPoint" />
          </mxGeometry>
        </mxCell>
        <mxCell id="SwfDSKc9lsgy5s3C8QAt-44" value="&lt;b&gt;&lt;font style=&quot;font-size: 16px;&quot;&gt;Hospital&lt;/font&gt;&lt;/b&gt;" style="rounded=0;whiteSpace=wrap;html=1;" vertex="1" parent="1">
          <mxGeometry x="130" y="640" width="120" height="60" as="geometry" />
        </mxCell>
        <mxCell id="SwfDSKc9lsgy5s3C8QAt-45" value="&lt;b&gt;&lt;font style=&quot;font-size: 16px;&quot;&gt;Doctor&lt;/font&gt;&lt;/b&gt;" style="rounded=0;whiteSpace=wrap;html=1;" vertex="1" parent="1">
          <mxGeometry x="365" y="840" width="120" height="60" as="geometry" />
        </mxCell>
        <mxCell id="SwfDSKc9lsgy5s3C8QAt-46" value="&lt;b&gt;&lt;font style=&quot;font-size: 16px;&quot;&gt;Test Result&lt;/font&gt;&lt;/b&gt;" style="rounded=0;whiteSpace=wrap;html=1;" vertex="1" parent="1">
          <mxGeometry x="620" y="640" width="120" height="60" as="geometry" />
        </mxCell>
        <mxCell id="SwfDSKc9lsgy5s3C8QAt-47" value="Hospital_&lt;div&gt;Name&lt;/div&gt;" style="ellipse;whiteSpace=wrap;html=1;" vertex="1" parent="1">
          <mxGeometry x="10" y="680" width="90" height="50" as="geometry" />
        </mxCell>
        <mxCell id="SwfDSKc9lsgy5s3C8QAt-48" value="&lt;u&gt;Hospital_ID&lt;/u&gt;" style="ellipse;whiteSpace=wrap;html=1;" vertex="1" parent="1">
          <mxGeometry x="10" y="600" width="90" height="60" as="geometry" />
        </mxCell>
        <mxCell id="SwfDSKc9lsgy5s3C8QAt-49" value="" style="endArrow=none;html=1;rounded=0;exitX=1;exitY=0.5;exitDx=0;exitDy=0;" edge="1" parent="1" source="SwfDSKc9lsgy5s3C8QAt-48">
          <mxGeometry width="50" height="50" relative="1" as="geometry">
            <mxPoint x="80" y="690" as="sourcePoint" />
            <mxPoint x="130" y="640" as="targetPoint" />
          </mxGeometry>
        </mxCell>
        <mxCell id="SwfDSKc9lsgy5s3C8QAt-50" value="" style="endArrow=none;html=1;rounded=0;exitX=1;exitY=0.5;exitDx=0;exitDy=0;" edge="1" parent="1" source="SwfDSKc9lsgy5s3C8QAt-47">
          <mxGeometry width="50" height="50" relative="1" as="geometry">
            <mxPoint x="80" y="750" as="sourcePoint" />
            <mxPoint x="130" y="700" as="targetPoint" />
          </mxGeometry>
        </mxCell>
        <mxCell id="SwfDSKc9lsgy5s3C8QAt-51" value="Doctor_Name" style="ellipse;whiteSpace=wrap;html=1;" vertex="1" parent="1">
          <mxGeometry x="485" y="930" width="90" height="50" as="geometry" />
        </mxCell>
        <mxCell id="SwfDSKc9lsgy5s3C8QAt-52" value="&lt;u&gt;Doctor_ID&lt;/u&gt;" style="ellipse;whiteSpace=wrap;html=1;" vertex="1" parent="1">
          <mxGeometry x="280" y="930" width="100" height="50" as="geometry" />
        </mxCell>
        <mxCell id="SwfDSKc9lsgy5s3C8QAt-53" value="" style="endArrow=none;html=1;rounded=0;exitX=0.668;exitY=-0.051;exitDx=0;exitDy=0;exitPerimeter=0;" edge="1" parent="1" source="SwfDSKc9lsgy5s3C8QAt-52">
          <mxGeometry width="50" height="50" relative="1" as="geometry">
            <mxPoint x="320" y="950" as="sourcePoint" />
            <mxPoint x="370" y="900" as="targetPoint" />
          </mxGeometry>
        </mxCell>
        <mxCell id="SwfDSKc9lsgy5s3C8QAt-54" value="" style="endArrow=none;html=1;rounded=0;exitX=0;exitY=0;exitDx=0;exitDy=0;" edge="1" parent="1" source="SwfDSKc9lsgy5s3C8QAt-51">
          <mxGeometry width="50" height="50" relative="1" as="geometry">
            <mxPoint x="420" y="950" as="sourcePoint" />
            <mxPoint x="470" y="900" as="targetPoint" />
          </mxGeometry>
        </mxCell>
        <mxCell id="SwfDSKc9lsgy5s3C8QAt-56" value="Result" style="ellipse;whiteSpace=wrap;html=1;" vertex="1" parent="1">
          <mxGeometry x="750" y="700" width="100" height="50" as="geometry" />
        </mxCell>
        <mxCell id="SwfDSKc9lsgy5s3C8QAt-57" value="&lt;u&gt;Test_ID&lt;/u&gt;" style="ellipse;whiteSpace=wrap;html=1;" vertex="1" parent="1">
          <mxGeometry x="740" y="590" width="100" height="50" as="geometry" />
        </mxCell>
        <mxCell id="SwfDSKc9lsgy5s3C8QAt-58" value="" style="endArrow=none;html=1;rounded=0;entryX=0.281;entryY=0.953;entryDx=0;entryDy=0;entryPerimeter=0;" edge="1" parent="1" target="SwfDSKc9lsgy5s3C8QAt-57">
          <mxGeometry width="50" height="50" relative="1" as="geometry">
            <mxPoint x="740" y="650" as="sourcePoint" />
            <mxPoint x="790" y="600" as="targetPoint" />
          </mxGeometry>
        </mxCell>
        <mxCell id="SwfDSKc9lsgy5s3C8QAt-60" value="" style="endArrow=none;html=1;rounded=0;" edge="1" parent="1" source="SwfDSKc9lsgy5s3C8QAt-56">
          <mxGeometry width="50" height="50" relative="1" as="geometry">
            <mxPoint x="690" y="750" as="sourcePoint" />
            <mxPoint x="740" y="700" as="targetPoint" />
          </mxGeometry>
        </mxCell>
        <mxCell id="SwfDSKc9lsgy5s3C8QAt-62" value="" style="endArrow=none;html=1;rounded=0;entryX=0;entryY=0.5;entryDx=0;entryDy=0;" edge="1" parent="1" target="SwfDSKc9lsgy5s3C8QAt-36">
          <mxGeometry width="50" height="50" relative="1" as="geometry">
            <mxPoint x="480" y="430" as="sourcePoint" />
            <mxPoint x="530" y="380" as="targetPoint" />
          </mxGeometry>
        </mxCell>
        <mxCell id="SwfDSKc9lsgy5s3C8QAt-63" value="Age" style="ellipse;whiteSpace=wrap;html=1;" vertex="1" parent="1">
          <mxGeometry x="385" y="90" width="80" height="40" as="geometry" />
        </mxCell>
        <mxCell id="SwfDSKc9lsgy5s3C8QAt-64" value="" style="endArrow=none;html=1;rounded=0;exitX=0.54;exitY=-0.034;exitDx=0;exitDy=0;entryX=0.5;entryY=1;entryDx=0;entryDy=0;exitPerimeter=0;" edge="1" parent="1" source="SwfDSKc9lsgy5s3C8QAt-15" target="SwfDSKc9lsgy5s3C8QAt-63">
          <mxGeometry width="50" height="50" relative="1" as="geometry">
            <mxPoint x="370" y="160" as="sourcePoint" />
            <mxPoint x="420" y="110" as="targetPoint" />
          </mxGeometry>
        </mxCell>
        <mxCell id="SwfDSKc9lsgy5s3C8QAt-65" value="Admits" style="rhombus;whiteSpace=wrap;html=1;" vertex="1" parent="1">
          <mxGeometry x="380" y="270" width="80" height="80" as="geometry" />
        </mxCell>
        <mxCell id="SwfDSKc9lsgy5s3C8QAt-66" value="" style="endArrow=none;html=1;rounded=0;exitX=0.5;exitY=0;exitDx=0;exitDy=0;" edge="1" parent="1" source="SwfDSKc9lsgy5s3C8QAt-65">
          <mxGeometry width="50" height="50" relative="1" as="geometry">
            <mxPoint x="370" y="270" as="sourcePoint" />
            <mxPoint x="420" y="220" as="targetPoint" />
          </mxGeometry>
        </mxCell>
        <mxCell id="SwfDSKc9lsgy5s3C8QAt-67" value="" style="endArrow=none;html=1;rounded=0;exitX=0.5;exitY=0;exitDx=0;exitDy=0;" edge="1" parent="1" source="SwfDSKc9lsgy5s3C8QAt-30">
          <mxGeometry width="50" height="50" relative="1" as="geometry">
            <mxPoint x="370" y="400" as="sourcePoint" />
            <mxPoint x="420" y="350" as="targetPoint" />
          </mxGeometry>
        </mxCell>
        <mxCell id="SwfDSKc9lsgy5s3C8QAt-68" value="1" style="text;html=1;align=center;verticalAlign=middle;resizable=0;points=[];autosize=1;strokeColor=none;fillColor=none;" vertex="1" parent="1">
          <mxGeometry x="415" y="218" width="30" height="30" as="geometry" />
        </mxCell>
        <mxCell id="SwfDSKc9lsgy5s3C8QAt-69" value="M" style="text;html=1;align=center;verticalAlign=middle;resizable=0;points=[];autosize=1;strokeColor=none;fillColor=none;" vertex="1" parent="1">
          <mxGeometry x="415" y="368" width="30" height="30" as="geometry" />
        </mxCell>
        <mxCell id="SwfDSKc9lsgy5s3C8QAt-70" value="" style="endArrow=none;html=1;rounded=0;exitX=0.451;exitY=0.046;exitDx=0;exitDy=0;exitPerimeter=0;entryX=0.427;entryY=0.933;entryDx=0;entryDy=0;entryPerimeter=0;" edge="1" parent="1" source="SwfDSKc9lsgy5s3C8QAt-30" target="SwfDSKc9lsgy5s3C8QAt-65">
          <mxGeometry width="50" height="50" relative="1" as="geometry">
            <mxPoint x="300" y="360" as="sourcePoint" />
            <mxPoint x="350" y="310" as="targetPoint" />
          </mxGeometry>
        </mxCell>
        <mxCell id="SwfDSKc9lsgy5s3C8QAt-71" value="Assigned&amp;nbsp;&lt;div&gt;To&lt;/div&gt;" style="rhombus;whiteSpace=wrap;html=1;" vertex="1" parent="1">
          <mxGeometry x="385" y="700" width="80" height="80" as="geometry" />
        </mxCell>
        <mxCell id="SwfDSKc9lsgy5s3C8QAt-72" value="" style="endArrow=none;html=1;rounded=0;exitX=0.5;exitY=1;exitDx=0;exitDy=0;entryX=0.5;entryY=0;entryDx=0;entryDy=0;" edge="1" parent="1" source="SwfDSKc9lsgy5s3C8QAt-71" target="SwfDSKc9lsgy5s3C8QAt-45">
          <mxGeometry width="50" height="50" relative="1" as="geometry">
            <mxPoint x="440" y="680" as="sourcePoint" />
            <mxPoint x="490" y="630" as="targetPoint" />
          </mxGeometry>
        </mxCell>
        <mxCell id="SwfDSKc9lsgy5s3C8QAt-73" value="" style="endArrow=none;html=1;rounded=0;entryX=0.545;entryY=1.01;entryDx=0;entryDy=0;exitX=0.5;exitY=0;exitDx=0;exitDy=0;entryPerimeter=0;" edge="1" parent="1" source="SwfDSKc9lsgy5s3C8QAt-71" target="SwfDSKc9lsgy5s3C8QAt-30">
          <mxGeometry width="50" height="50" relative="1" as="geometry">
            <mxPoint x="410" y="670" as="sourcePoint" />
            <mxPoint x="460" y="620" as="targetPoint" />
          </mxGeometry>
        </mxCell>
        <mxCell id="SwfDSKc9lsgy5s3C8QAt-74" value="1" style="text;html=1;align=center;verticalAlign=middle;resizable=0;points=[];autosize=1;strokeColor=none;fillColor=none;" vertex="1" parent="1">
          <mxGeometry x="425" y="808" width="30" height="30" as="geometry" />
        </mxCell>
        <mxCell id="SwfDSKc9lsgy5s3C8QAt-75" value="M" style="text;html=1;align=center;verticalAlign=middle;resizable=0;points=[];autosize=1;strokeColor=none;fillColor=none;" vertex="1" parent="1">
          <mxGeometry x="425" y="460" width="30" height="30" as="geometry" />
        </mxCell>
        <mxCell id="SwfDSKc9lsgy5s3C8QAt-76" value="" style="endArrow=none;html=1;rounded=0;entryX=0.5;entryY=1;entryDx=0;entryDy=0;exitX=0.435;exitY=0.117;exitDx=0;exitDy=0;exitPerimeter=0;" edge="1" parent="1" source="SwfDSKc9lsgy5s3C8QAt-71" target="SwfDSKc9lsgy5s3C8QAt-30">
          <mxGeometry width="50" height="50" relative="1" as="geometry">
            <mxPoint x="420" y="690" as="sourcePoint" />
            <mxPoint x="460" y="570" as="targetPoint" />
          </mxGeometry>
        </mxCell>
        <mxCell id="SwfDSKc9lsgy5s3C8QAt-77" value="Conducted&amp;nbsp;&lt;div&gt;In&lt;/div&gt;" style="rhombus;whiteSpace=wrap;html=1;" vertex="1" parent="1">
          <mxGeometry x="220" y="520" width="90" height="80" as="geometry" />
        </mxCell>
        <mxCell id="SwfDSKc9lsgy5s3C8QAt-78" value="" style="endArrow=none;html=1;rounded=0;exitX=1;exitY=0.5;exitDx=0;exitDy=0;entryX=0.5;entryY=1;entryDx=0;entryDy=0;" edge="1" parent="1" source="SwfDSKc9lsgy5s3C8QAt-44" target="SwfDSKc9lsgy5s3C8QAt-77">
          <mxGeometry width="50" height="50" relative="1" as="geometry">
            <mxPoint x="260" y="660" as="sourcePoint" />
            <mxPoint x="260" y="600" as="targetPoint" />
            <Array as="points">
              <mxPoint x="265" y="670" />
            </Array>
          </mxGeometry>
        </mxCell>
        <mxCell id="SwfDSKc9lsgy5s3C8QAt-79" value="" style="endArrow=none;html=1;rounded=0;exitX=0.912;exitY=0.416;exitDx=0;exitDy=0;exitPerimeter=0;entryX=0.197;entryY=1.031;entryDx=0;entryDy=0;entryPerimeter=0;" edge="1" parent="1" source="SwfDSKc9lsgy5s3C8QAt-77" target="SwfDSKc9lsgy5s3C8QAt-30">
          <mxGeometry width="50" height="50" relative="1" as="geometry">
            <mxPoint x="340" y="510" as="sourcePoint" />
            <mxPoint x="390" y="460" as="targetPoint" />
            <Array as="points">
              <mxPoint x="384" y="554" />
            </Array>
          </mxGeometry>
        </mxCell>
        <mxCell id="SwfDSKc9lsgy5s3C8QAt-80" value="M" style="text;html=1;align=center;verticalAlign=middle;resizable=0;points=[];autosize=1;strokeColor=none;fillColor=none;" vertex="1" parent="1">
          <mxGeometry x="355" y="458" width="30" height="30" as="geometry" />
        </mxCell>
        <mxCell id="SwfDSKc9lsgy5s3C8QAt-81" value="1" style="text;html=1;align=center;verticalAlign=middle;resizable=0;points=[];autosize=1;strokeColor=none;fillColor=none;" vertex="1" parent="1">
          <mxGeometry x="260" y="650" width="30" height="30" as="geometry" />
        </mxCell>
        <mxCell id="SwfDSKc9lsgy5s3C8QAt-82" value="Has Test Result" style="rhombus;whiteSpace=wrap;html=1;" vertex="1" parent="1">
          <mxGeometry x="550" y="520" width="80" height="80" as="geometry" />
        </mxCell>
        <mxCell id="SwfDSKc9lsgy5s3C8QAt-83" value="" style="endArrow=none;html=1;rounded=0;exitX=1.11;exitY=-0.04;exitDx=0;exitDy=0;exitPerimeter=0;" edge="1" parent="1" source="SwfDSKc9lsgy5s3C8QAt-75">
          <mxGeometry width="50" height="50" relative="1" as="geometry">
            <mxPoint x="500" y="610" as="sourcePoint" />
            <mxPoint x="550" y="560" as="targetPoint" />
            <Array as="points">
              <mxPoint x="460" y="560" />
            </Array>
          </mxGeometry>
        </mxCell>
        <mxCell id="SwfDSKc9lsgy5s3C8QAt-84" value="" style="endArrow=none;html=1;rounded=0;exitX=0.101;exitY=0.435;exitDx=0;exitDy=0;exitPerimeter=0;" edge="1" parent="1">
          <mxGeometry width="50" height="50" relative="1" as="geometry">
            <mxPoint x="556.0799999999999" y="554.8" as="sourcePoint" />
            <mxPoint x="468" y="460" as="targetPoint" />
            <Array as="points">
              <mxPoint x="470" y="555" />
            </Array>
          </mxGeometry>
        </mxCell>
        <mxCell id="SwfDSKc9lsgy5s3C8QAt-85" value="" style="endArrow=none;html=1;rounded=0;entryX=0.5;entryY=1;entryDx=0;entryDy=0;exitX=0;exitY=0.5;exitDx=0;exitDy=0;" edge="1" parent="1" source="SwfDSKc9lsgy5s3C8QAt-46" target="SwfDSKc9lsgy5s3C8QAt-82">
          <mxGeometry width="50" height="50" relative="1" as="geometry">
            <mxPoint x="590" y="660" as="sourcePoint" />
            <mxPoint x="440" y="520" as="targetPoint" />
            <Array as="points">
              <mxPoint x="590" y="670" />
            </Array>
          </mxGeometry>
        </mxCell>
        <mxCell id="SwfDSKc9lsgy5s3C8QAt-87" value="" style="endArrow=none;html=1;rounded=0;entryX=1;entryY=1;entryDx=0;entryDy=0;" edge="1" parent="1" source="SwfDSKc9lsgy5s3C8QAt-34" target="SwfDSKc9lsgy5s3C8QAt-30">
          <mxGeometry width="50" height="50" relative="1" as="geometry">
            <mxPoint x="520" y="460" as="sourcePoint" />
            <mxPoint x="460" y="460" as="targetPoint" />
          </mxGeometry>
        </mxCell>
        <mxCell id="SwfDSKc9lsgy5s3C8QAt-86" value="1" style="text;html=1;align=center;verticalAlign=middle;resizable=0;points=[];autosize=1;strokeColor=none;fillColor=none;" vertex="1" parent="1">
          <mxGeometry x="460" y="458" width="30" height="30" as="geometry" />
        </mxCell>
        <mxCell id="SwfDSKc9lsgy5s3C8QAt-88" value="M" style="text;html=1;align=center;verticalAlign=middle;resizable=0;points=[];autosize=1;strokeColor=none;fillColor=none;" vertex="1" parent="1">
          <mxGeometry x="565" y="648" width="30" height="30" as="geometry" />
        </mxCell>
        <mxCell id="SwfDSKc9lsgy5s3C8QAt-89" value="Has&lt;div&gt;&amp;nbsp;Condition&lt;/div&gt;" style="rhombus;whiteSpace=wrap;html=1;" vertex="1" parent="1">
          <mxGeometry x="620" y="150" width="80" height="80" as="geometry" />
        </mxCell>
        <mxCell id="SwfDSKc9lsgy5s3C8QAt-90" value="" style="endArrow=none;html=1;rounded=0;" edge="1" parent="1" source="SwfDSKc9lsgy5s3C8QAt-89">
          <mxGeometry width="50" height="50" relative="1" as="geometry">
            <mxPoint x="610" y="150" as="sourcePoint" />
            <mxPoint x="660" y="100" as="targetPoint" />
          </mxGeometry>
        </mxCell>
        <mxCell id="SwfDSKc9lsgy5s3C8QAt-91" value="" style="endArrow=none;html=1;rounded=0;exitX=1;exitY=0.5;exitDx=0;exitDy=0;" edge="1" parent="1" source="SwfDSKc9lsgy5s3C8QAt-15">
          <mxGeometry width="50" height="50" relative="1" as="geometry">
            <mxPoint x="570" y="240" as="sourcePoint" />
            <mxPoint x="620" y="190" as="targetPoint" />
          </mxGeometry>
        </mxCell>
        <mxCell id="SwfDSKc9lsgy5s3C8QAt-92" value="" style="endArrow=none;html=1;rounded=0;entryX=0.565;entryY=0.961;entryDx=0;entryDy=0;entryPerimeter=0;exitX=0.588;exitY=0.079;exitDx=0;exitDy=0;exitPerimeter=0;" edge="1" parent="1" source="SwfDSKc9lsgy5s3C8QAt-89" target="SwfDSKc9lsgy5s3C8QAt-10">
          <mxGeometry width="50" height="50" relative="1" as="geometry">
            <mxPoint x="670" y="153" as="sourcePoint" />
            <mxPoint x="660" y="100" as="targetPoint" />
          </mxGeometry>
        </mxCell>
        <mxCell id="SwfDSKc9lsgy5s3C8QAt-93" value="M" style="text;html=1;align=center;verticalAlign=middle;resizable=0;points=[];autosize=1;strokeColor=none;fillColor=none;" vertex="1" parent="1">
          <mxGeometry x="630" y="95" width="30" height="30" as="geometry" />
        </mxCell>
        <mxCell id="SwfDSKc9lsgy5s3C8QAt-94" value="M" style="text;html=1;align=center;verticalAlign=middle;resizable=0;points=[];autosize=1;strokeColor=none;fillColor=none;" vertex="1" parent="1">
          <mxGeometry x="475" y="168" width="30" height="30" as="geometry" />
        </mxCell>
        <mxCell id="SwfDSKc9lsgy5s3C8QAt-95" value="Prescribed" style="rhombus;whiteSpace=wrap;html=1;" vertex="1" parent="1">
          <mxGeometry x="140" y="150" width="80" height="80" as="geometry" />
        </mxCell>
        <mxCell id="SwfDSKc9lsgy5s3C8QAt-96" value="" style="endArrow=none;html=1;rounded=0;exitX=0.5;exitY=0;exitDx=0;exitDy=0;entryX=0.412;entryY=0.999;entryDx=0;entryDy=0;entryPerimeter=0;" edge="1" parent="1" source="SwfDSKc9lsgy5s3C8QAt-95" target="SwfDSKc9lsgy5s3C8QAt-1">
          <mxGeometry width="50" height="50" relative="1" as="geometry">
            <mxPoint x="140" y="150" as="sourcePoint" />
            <mxPoint x="190" y="100" as="targetPoint" />
          </mxGeometry>
        </mxCell>
        <mxCell id="SwfDSKc9lsgy5s3C8QAt-97" value="" style="endArrow=none;html=1;rounded=0;exitX=1;exitY=0.5;exitDx=0;exitDy=0;entryX=0;entryY=0.5;entryDx=0;entryDy=0;" edge="1" parent="1" source="SwfDSKc9lsgy5s3C8QAt-95" target="SwfDSKc9lsgy5s3C8QAt-15">
          <mxGeometry width="50" height="50" relative="1" as="geometry">
            <mxPoint x="310" y="230" as="sourcePoint" />
            <mxPoint x="360" y="180" as="targetPoint" />
          </mxGeometry>
        </mxCell>
        <mxCell id="SwfDSKc9lsgy5s3C8QAt-98" value="" style="endArrow=none;html=1;rounded=0;exitX=0.626;exitY=0.146;exitDx=0;exitDy=0;exitPerimeter=0;" edge="1" parent="1" source="SwfDSKc9lsgy5s3C8QAt-95">
          <mxGeometry width="50" height="50" relative="1" as="geometry">
            <mxPoint x="140" y="150" as="sourcePoint" />
            <mxPoint x="190" y="100" as="targetPoint" />
          </mxGeometry>
        </mxCell>
        <mxCell id="SwfDSKc9lsgy5s3C8QAt-99" value="M" style="text;html=1;align=center;verticalAlign=middle;resizable=0;points=[];autosize=1;strokeColor=none;fillColor=none;" vertex="1" parent="1">
          <mxGeometry x="185" y="98" width="30" height="30" as="geometry" />
        </mxCell>
        <mxCell id="SwfDSKc9lsgy5s3C8QAt-100" value="M" style="text;html=1;align=center;verticalAlign=middle;resizable=0;points=[];autosize=1;strokeColor=none;fillColor=none;" vertex="1" parent="1">
          <mxGeometry x="335" y="168" width="30" height="30" as="geometry" />
        </mxCell>
      </root>
    </mxGraphModel>
  </diagram>
</mxfile>
